<svg width="611" height="611" viewBox="0 0 611 611" fill="none" xmlns="http://www.w3.org/2000/svg">
<path d="M595.606 7.58181C605.272 14.7412 611 26.1963 611 38.2479V124.161V439.174C611 491.915 559.686 534.633 496.438 534.633C433.189 534.633 381.875 491.915 381.875 439.174C381.875 386.433 433.189 343.716 496.438 343.716C509.803 343.716 522.691 345.625 534.625 349.205V175.47L229.125 267.11V515.541C229.125 568.282 177.811 611 114.562 611C51.3145 611 0 568.282 0 515.541C0 462.8 51.3145 420.083 114.562 420.083C127.928 420.083 140.816 421.992 152.75 425.572V238.711V152.798C152.75 135.974 163.848 121.058 179.959 116.166L561.834 1.61564C573.409 -1.84473 585.939 0.303087 595.606 7.58181Z" fill="#8FC0AA"/>
</svg>
