<svg width="1000" height="1000" viewBox="0 0 1000 1000" fill="none" xmlns="http://www.w3.org/2000/svg">
<rect width="1000" height="1000" rx="500" fill="white"/>
<path d="M754.606 189.582C764.272 196.741 770 208.196 770 220.248V306.161V621.174C770 673.915 718.686 716.633 655.438 716.633C592.189 716.633 540.875 673.915 540.875 621.174C540.875 568.433 592.189 525.716 655.438 525.716C668.803 525.716 681.691 527.625 693.625 531.205V357.47L388.125 449.11V697.541C388.125 750.282 336.811 793 273.562 793C210.314 793 159 750.282 159 697.541C159 644.8 210.314 602.083 273.562 602.083C286.928 602.083 299.816 603.992 311.75 607.572V420.711V334.798C311.75 317.974 322.848 303.058 338.959 298.166L720.834 183.616C732.409 180.155 744.939 182.303 754.606 189.582Z" fill="#8FC0AA"/>
</svg>
